<svg xmlns="http://www.w3.org/2000/svg" width="388.677" height="83.9" viewBox="0 0 388.677 83.9">
  <g id="logo-yt" transform="translate(-54.079 -137.398)">
    <g id="g2366">
      <path id="path1412" d="M114.843,221.3s38.111,0,47.564-2.517a15.2,15.2,0,0,0,10.73-10.613c2.6-9.313,2.6-28.9,2.6-28.9s0-19.465-2.6-28.694a14.908,14.908,0,0,0-10.73-10.613c-9.453-2.559-47.564-2.559-47.564-2.559s-38.025,0-47.436,2.559a15.312,15.312,0,0,0-10.816,10.613c-2.512,9.229-2.512,28.694-2.512,28.694s0,19.591,2.512,28.9a15.617,15.617,0,0,0,10.816,10.613C76.817,221.3,114.843,221.3,114.843,221.3Z" fill="#f03"/>
      <path id="path1414" d="M133.785,179.348l-31.463-17.829v35.658Z" fill="#fff"/>
    </g>
    <g id="g2362">
      <path id="path1418" d="M209.876,216.684v-22.9l14.557-47.571H213.568l-5.537,21.6c-1.258,4.95-2.391,10.11-3.23,14.892h-.671a122.045,122.045,0,0,0-3.146-14.976l-5.37-21.521H184.748l14.347,47.571v22.9Z" fill="#fff"/>
      <path id="path1420" d="M239.081,163.827c-12.711,0-17.074,7.341-17.074,23.156v7.509c0,14.179,2.727,23.073,16.822,23.073,13.885,0,16.864-8.474,16.864-23.073v-7.509C255.693,172.846,252.841,163.827,239.081,163.827Zm5.412,35.322c0,6.88-1.217,11.2-5.621,11.2-4.321,0-5.537-4.363-5.537-11.2V182.2c0-5.873.839-11.117,5.537-11.117,4.95,0,5.621,5.537,5.621,11.117Z" fill="#fff"/>
      <path id="path1422" d="M273.359,217.481c6.125,0,9.942-2.559,13.089-7.173h.461l.461,6.376h8.348v-51.85H284.644V206.49a7.813,7.813,0,0,1-6.461,3.566c-3.23,0-4.237-2.559-4.237-6.838V164.833H262.913v38.888c0,8.432,2.434,13.76,10.446,13.76Z" fill="#fff"/>
      <path id="path1424" d="M317.637,216.684V154.808H330.39v-8.6H293.935v8.6h12.753v61.876Z" fill="#fff"/>
      <path id="path1426" d="M338.808,217.481c6.125,0,9.942-2.559,13.089-7.173h.461l.461,6.376h8.348v-51.85H350.093V206.49a7.812,7.812,0,0,1-6.46,3.566c-3.23,0-4.237-2.559-4.237-6.838V164.834H328.362v38.888c0,8.432,2.433,13.76,10.446,13.76Z" fill="#fff"/>
      <path id="path1428" d="M392.511,163.7a13.452,13.452,0,0,0-11.788,6.167h-.545c.336-5.034.587-9.313.587-12.711V143.439h-10.7l-.042,45.054.042,28.191h9.313l.8-5.034h.294a13.468,13.468,0,0,0,11.368,5.537c8.432,0,12.04-7.257,12.04-22.7V186.48c0-14.431-1.636-22.779-11.368-22.779Zm.378,30.791c0,9.649-1.426,15.4-5.915,15.4-2.1,0-4.992-1.007-6.293-2.895V176.16c1.133-2.937,3.65-5.076,6.46-5.076,4.531,0,5.747,5.5,5.747,15.521Z" fill="#fff"/>
      <path id="path1430" d="M442.756,185.641c0-12.5-1.259-21.772-15.647-21.772-13.55,0-16.57,9.019-16.57,22.275v9.1c0,12.921,2.769,22.318,16.235,22.318,10.655,0,16.151-5.328,15.522-15.648l-9.439-.5c-.126,6.376-1.594,8.977-5.831,8.977-5.328,0-5.579-5.076-5.579-12.627v-3.524h21.311Zm-15.9-14.808c5.118,0,5.5,4.824,5.5,13v4.237H421.445v-4.237c0-8.1.336-13,5.412-13Z" fill="#fff"/>
    </g>
  </g>
</svg>
